<svg xmlns="http://www.w3.org/2000/svg" version="1.1" xmlns:xlink="http://www.w3.org/1999/xlink" xmlns:svgjs="http://svgjs.dev/svgjs" width="1500" height="935" viewBox="0 0 1500 935"><g transform="matrix(1,0,0,1,-0.9090909090909918,0.3785425101214628)"><svg viewBox="0 0 396 247" data-background-color="#f9f9f9" preserveAspectRatio="xMidYMid meet" height="935" width="1500" xmlns="http://www.w3.org/2000/svg" xmlns:xlink="http://www.w3.org/1999/xlink"><g id="tight-bounds" transform="matrix(1,0,0,1,0.2400000000000091,-0.09999999999999432)"><svg viewBox="0 0 395.52 247.2" height="247.2" width="395.52"><g><svg></svg></g><g><svg viewBox="0 0 395.52 247.2" height="247.2" width="395.52"><g transform="matrix(1,0,0,1,93.94419447513812,47.215199999999996)"><svg viewBox="0 0 207.63161104972374 152.7696" height="152.7696" width="207.63161104972374"><g><svg viewBox="0 0 207.63161104972374 152.7696" height="152.7696" width="207.63161104972374"><g><svg viewBox="0 0 207.63161104972374 152.7696" height="152.7696" width="207.63161104972374"><g><svg viewBox="0 0 207.63161104972374 152.7696" height="152.7696" width="207.63161104972374"><g id="textblocktransform"><svg viewBox="0 0 207.63161104972374 152.7696" height="152.7696" width="207.63161104972374" id="textblock"><g><svg viewBox="0 0 207.63161104972374 152.7696" height="152.7696" width="207.63161104972374"><g transform="matrix(1,0,0,1,0,0)"><svg width="207.63161104972374" viewBox="-0.35 -35.45 49.2 36.2" height="152.7696" data-palette-color="#030303"><path d="M5.95 0.75L5.95 0.75Q5.05 0.75 3.8 0.53 2.55 0.3 1.4-0.06 0.25-0.43-0.35-0.85L-0.35-0.85 2.05-6.8Q2.7-5.88 3.69-5.34 4.67-4.8 5.65-4.8L5.65-4.8Q6.63-4.8 7.6-5.08 8.58-5.35 9.21-6.41 9.85-7.48 9.85-9.85L9.85-9.85 9.85-34.85 16.35-34.85 16.35-10.45Q16.35-7.35 15.4-4.81 14.45-2.27 12.18-0.76 9.9 0.75 5.95 0.75ZM48.85 0.7L48.35 0.7 31.65-18.35 30.1-20.35 30.35-15.5 30.35 0 24.2 0 24.2-35.45 24.75-35.45 41.2-16.25 42.95-13.98 42.7-18.75 42.7-34.85 48.85-34.85 48.85 0.7Z" opacity="1" transform="matrix(1,0,0,1,0,0)" fill="#030303" class="wordmark-text-0" data-fill-palette-color="primary" id="text-0"></path></svg></g></svg></g></svg></g></svg></g></svg></g></svg></g></svg></g><path d="M119.274 41.215L119.274 0 366.474 0 366.474 247.2 119.274 247.2 119.274 205.985 133.051 205.985 133.051 233.423 352.698 233.423 352.698 13.777 133.051 13.777 133.051 41.215Z" fill="#030303" stroke="transparent" data-fill-palette-color="tertiary"></path></svg></g><defs></defs></svg><rect width="395.52" height="247.2" fill="none" stroke="none" visibility="hidden"></rect></g></svg></g></svg>